<!-- Generator: Adobe Illustrator 25.2.0, SVG Export Plug-In  -->
<svg version="1.1" xmlns="http://www.w3.org/2000/svg" xmlns:xlink="http://www.w3.org/1999/xlink" x="0px" y="0px" width="331.2px"
	 height="277.2px" viewBox="0 0 331.2 277.2" style="overflow:visible;enable-background:new 0 0 331.2 277.2;"
	 xml:space="preserve">
<style type="text/css">
	.st0{fill:#FFFFFF;}
</style>
<defs>
</defs>
<g>
	<path class="st0" d="M0,277.2C0,184.8,0,92.4,0,0c110.4,0,220.8,0,331.2,0c0,92.4,0,184.8,0,277.2C220.8,277.2,110.4,277.2,0,277.2
		z M200.32,260.08c-3.84,0.42-7.66,1.03-11.51,1.22c-9.85,0.48-19.71,0.79-29.56,1.11c-0.97,0.03-2-0.22-2.92-0.55
		c-0.43-0.15-0.96-0.83-0.93-1.22c0.04-0.46,0.56-1.1,1.02-1.26c0.62-0.22,1.38-0.12,2.07-0.05c17.21,1.77,33.59-1.32,49.18-8.63
		c36.48-17.13,58.63-45.72,65.74-85.18c4.53-25.15,1.48-49.98-9.3-73.38c-14.02-30.42-36.27-52.32-68.11-63.84
		c-2.47-0.89-5.03-1.55-7.69-2.37c0.86-1.32,1.53-2.34,2.63-4.03c-4.49-0.87-8.35-1.64-12.22-2.37
		c-15.32-2.89-30.66-1.61-45.91,0.39c-9.29,1.22-17.12,6.29-24.92,11.18c-1.26,0.79-2.34,3.01-4.19,1.21
		c-0.16-0.15,1.36-2.69,2.54-3.46c14.55-9.56,30.13-16.32,47.84-17.1c2.35-0.1,4.68-0.57,7.02-0.87
		c-51.33-6.23-96.15,20.67-116.3,53.86c1.36-0.92,2.41-1.62,3.46-2.33c8.2-5.5,16.53-10.82,26.07-13.73
		c4.31-1.32,8.5-2.42,11.07-6.66c0.44-0.73,2.26-0.62,3.44-0.9c-0.47,0.95-0.75,2.08-1.45,2.81c-5,5.23-11.16,9.37-14.68,15.97
		c-1.12,2.11-2.38,4.15-3.68,6.15c-1.08,1.68-2.48,2.26-4.76,0.22c3.44-4.33,6.89-8.67,10.86-13.67c-4.84,0.08-8.7-0.08-11.5,3.39
		c-3.81,4.72-7.94,9.23-11.32,14.24c-3.55,5.24-6.28,11.01-7.73,17.68c3.37-0.26,6.42-0.55,9.47-0.71c1.93-0.1,3.16-0.86,3.71-2.79
		c0.46-1.62,1.04-3.23,1.78-4.73c0.27-0.54,1.18-0.75,1.8-1.12c0.31,0.73,0.76,1.43,0.88,2.19c0.08,0.53-0.25,1.15-0.47,1.71
		c-2.51,6.57-5.07,13.12-7.52,19.71c-0.69,1.86-1.01,3.85-1.66,5.73c-0.49,1.4-1.06,2.84-1.93,4.01c-0.6,0.81-1.78,1.2-2.7,1.78
		c-0.06-1.01-0.39-2.1-0.12-3.02c0.55-1.91,1.38-3.73,2.15-5.57c1.22-2.94,2.57-5.83,3.71-8.8c0.85-2.21,0-3.48-2.45-3.48
		c-1.6,0-3.19,0.09-4.79,0.07c-2.35-0.02-3.6,1.01-4.11,3.4c-2.2,10.12-4.6,20.2-6.76,30.33c-0.53,2.46-0.44,5.05-0.69,8.28
		c3.92-0.93,7.18-1.7,10.43-2.47c1.37-0.32,2.94-1.43,3.64,0.92c0.64,2.15-0.44,3.15-2.39,3.61c-3.01,0.71-6,1.47-9.01,2.16
		c-1.79,0.41-2.82,1.24-2.51,3.3c0.99,6.69,1.64,13.44,2.91,20.08c1.11,5.79,1.46,5.77,7.29,3.93c0.28-0.09,0.57-0.17,0.85-0.29
		c2.21-0.92,3.05-2.42,2.1-4.75c-0.82-2.02-1.76-4.03-2.29-6.13c-0.18-0.72,0.7-1.71,1.1-2.58c0.78,0.53,2.05,0.91,2.25,1.62
		c0.65,2.18,0.93,4.47,1.3,6.72c1.22,7.44,0.88,8.09-6.24,10.2c-2.16,0.64-2.69,1.66-1.97,3.69c1.3,3.66,2.77,7.28,3.67,11.04
		c0.76,3.17,2.27,2.77,4.53,1.91c2.49-0.95,5.07-1.73,7.68-2.32c0.96-0.22,2.1,0.31,3.15,0.5c-0.77,1.13-1.29,2.7-2.36,3.29
		c-1.98,1.09-4.27,1.61-6.44,2.34c-2.06,0.7-2.53,2-1.65,3.95c5.83,12.88,13.11,24.85,22.47,35.49c0.46,0.52,1.53,1.19,1.91,1
		c3.27-1.65,7.54-1.67,9.42-5.72c0.25-0.54,1.92-0.99,2.5-0.68c1.05,0.56,2.05,1.62,2.49,2.7c0.16,0.4-1.29,1.52-2.1,2.21
		c-0.6,0.51-1.34,0.87-2.05,1.22c-2.37,1.18-4.75,2.33-7.65,3.75c3.22,2.75,5.9,5.25,8.83,7.42c0.88,0.65,2.57,0.8,3.66,0.46
		c4.27-1.35,8.44-3.03,12.68-4.47c0.69-0.24,1.82-0.2,2.33,0.22c2.03,1.66,1.71,3.11-0.87,4.03c-3.95,1.41-7.95,2.7-12.85,4.36
		c6.12,3.43,11.37,6.45,16.71,9.29c0.82,0.44,2.19,0.4,3.09,0.04c3.51-1.4,6.91-3.09,10.42-4.5c1.09-0.44,2.51-0.74,3.57-0.42
		c4.38,1.32,8.75,2.74,12.99,4.47c1.5,0.61,2.59,2.2,3.87,3.34c-1.58,1.03-3.13,2.11-4.77,3.04c-0.4,0.23-1.07-0.03-2.05-0.1
		c0.74-1.39,1.31-2.48,1.87-3.53c-6.19-4.27-12.3-4.16-23.58,0.54C142.86,272.36,171.56,271.21,200.32,260.08z"/>
	<path d="M200.32,260.08c-28.76,11.13-57.46,12.28-86.52-0.3c11.28-4.7,17.38-4.81,23.58-0.54c-0.56,1.05-1.13,2.14-1.87,3.53
		c0.98,0.07,1.65,0.33,2.05,0.1c1.63-0.93,3.18-2.02,4.77-3.04c-1.28-1.14-2.37-2.73-3.87-3.34c-4.24-1.73-8.61-3.15-12.99-4.47
		c-1.06-0.32-2.48-0.02-3.57,0.42c-3.51,1.41-6.9,3.1-10.42,4.5c-0.9,0.36-2.27,0.4-3.09-0.04c-5.34-2.84-10.59-5.86-16.71-9.29
		c4.9-1.65,8.9-2.94,12.85-4.36c2.58-0.92,2.9-2.37,0.87-4.03c-0.51-0.42-1.64-0.45-2.33-0.22c-4.24,1.44-8.41,3.12-12.68,4.47
		c-1.09,0.34-2.78,0.19-3.66-0.46c-2.93-2.17-5.62-4.67-8.83-7.42c2.9-1.42,5.28-2.57,7.65-3.75c0.71-0.36,1.45-0.72,2.05-1.22
		c0.81-0.68,2.26-1.81,2.1-2.21c-0.44-1.08-1.44-2.14-2.49-2.7c-0.58-0.31-2.25,0.14-2.5,0.68c-1.89,4.05-6.15,4.07-9.42,5.72
		c-0.38,0.19-1.45-0.48-1.91-1c-9.36-10.64-16.64-22.61-22.47-35.49c-0.88-1.95-0.41-3.25,1.65-3.95c2.17-0.73,4.46-1.25,6.44-2.34
		c1.07-0.59,1.59-2.16,2.36-3.29c-1.06-0.19-2.19-0.72-3.15-0.5c-2.6,0.59-5.18,1.36-7.68,2.32c-2.27,0.87-3.78,1.26-4.53-1.91
		c-0.9-3.76-2.38-7.38-3.67-11.04c-0.72-2.02-0.19-3.05,1.97-3.69c7.12-2.11,7.46-2.76,6.24-10.2c-0.37-2.26-0.65-4.55-1.3-6.72
		c-0.21-0.7-1.47-1.09-2.25-1.62c-0.4,0.87-1.28,1.86-1.1,2.58c0.53,2.1,1.47,4.11,2.29,6.13c0.95,2.33,0.11,3.84-2.1,4.75
		c-0.28,0.11-0.56,0.2-0.85,0.29c-5.83,1.84-6.18,1.86-7.29-3.93c-1.27-6.63-1.93-13.38-2.91-20.08c-0.3-2.06,0.72-2.89,2.51-3.3
		c3.01-0.69,6-1.46,9.01-2.16c1.95-0.46,3.03-1.45,2.39-3.61c-0.69-2.35-2.27-1.24-3.64-0.92c-3.26,0.77-6.51,1.54-10.43,2.47
		c0.25-3.23,0.17-5.82,0.69-8.28c2.17-10.13,4.57-20.2,6.76-30.33c0.52-2.38,1.77-3.42,4.11-3.4c1.6,0.01,3.19-0.07,4.79-0.07
		c2.45-0.01,3.3,1.27,2.45,3.48c-1.14,2.97-2.49,5.86-3.71,8.8c-0.77,1.84-1.6,3.67-2.15,5.57c-0.26,0.92,0.06,2.01,0.12,3.02
		c0.92-0.58,2.09-0.97,2.7-1.78c0.87-1.17,1.45-2.61,1.93-4.01c0.65-1.88,0.97-3.87,1.66-5.73c2.46-6.59,5.02-13.14,7.52-19.71
		c0.21-0.56,0.55-1.18,0.47-1.71c-0.12-0.76-0.57-1.46-0.88-2.19c-0.62,0.36-1.53,0.58-1.8,1.12c-0.75,1.5-1.32,3.11-1.78,4.73
		c-0.55,1.93-1.78,2.69-3.71,2.79c-3.05,0.15-6.1,0.45-9.47,0.71c1.45-6.67,4.18-12.44,7.73-17.68c3.39-5.01,7.52-9.52,11.32-14.24
		c2.8-3.47,6.66-3.32,11.5-3.39c-3.97,5-7.42,9.34-10.86,13.67c2.29,2.04,3.68,1.46,4.76-0.22c1.3-2.01,2.55-4.05,3.68-6.15
		c3.52-6.6,9.68-10.74,14.68-15.97c0.7-0.73,0.98-1.86,1.45-2.81c-1.18,0.28-3,0.17-3.44,0.9c-2.57,4.24-6.76,5.34-11.07,6.66
		c-9.54,2.91-17.87,8.23-26.07,13.73c-1.05,0.7-2.1,1.41-3.46,2.33c20.15-33.19,64.97-60.09,116.3-53.86
		c-2.34,0.3-4.67,0.77-7.02,0.87c-17.71,0.78-33.29,7.53-47.84,17.1c-1.17,0.77-2.7,3.31-2.54,3.46c1.84,1.79,2.93-0.42,4.19-1.21
		c7.8-4.89,15.63-9.96,24.92-11.18c15.25-2,30.58-3.28,45.91-0.39c3.87,0.73,7.73,1.5,12.22,2.37c-1.1,1.69-1.77,2.7-2.63,4.03
		c2.66,0.81,5.22,1.47,7.69,2.37c31.85,11.52,54.1,33.42,68.11,63.84c10.78,23.4,13.83,48.23,9.3,73.38
		c-7.11,39.46-29.26,68.05-65.74,85.18c-15.58,7.32-31.97,10.4-49.18,8.63c-0.69-0.07-1.45-0.17-2.07,0.05
		c-0.46,0.16-0.98,0.8-1.02,1.26c-0.03,0.39,0.5,1.07,0.93,1.22c0.93,0.33,1.95,0.58,2.92,0.55c9.86-0.32,19.72-0.63,29.56-1.11
		C192.66,261.11,196.49,260.5,200.32,260.08z M138.98,233.63c2.23,0.55,3.73,1.08,5.27,1.28c11.61,1.53,23.27,2.41,34.9,0.68
		c6.48-0.96,12.88-2.61,19.24-4.23c2.51-0.64,5.05-1.81,5.44-5.05c-9.49,1.79-18.67,3.81-27.95,5.18
		c-9.3,1.38-18.65,1.39-27.84-1.54c1.96-0.69,3.94-0.88,5.9-0.78c11.32,0.62,22.51,0.03,33.51-3.01c20.03-5.54,36.7-15.74,47.9-33.8
		c5.15-8.3,8.63-17.23,10.89-26.69c0.46-1.95,0.24-4.07-1.66-4.6c-4.74-1.34-3.71-4.25-3.35-7.89c1.98-20.4-1.02-39.95-12.85-57.13
		c-15.13-21.98-35.7-36.13-62.38-40.56c-24.2-4.02-44.77,3.23-61.79,20.55C90.29,90.2,81.85,107.09,80.9,127.1
		c-0.39,8.12-0.41,16.47,1.03,24.41c2.48,13.67,8.59,26.03,16.59,37.42c10.67,15.19,24.75,25.51,42.9,29.82
		c10.75,2.55,21.58,2.09,32.35-0.2c25.23-5.37,44.51-18.89,56.88-41.73c2.31-4.27,4.18-8.78,6.34-13.35
		c1.84,0.89,4.93,0.42,4.11,3.8c-3.95,16.25-11.54,30.38-25.1,40.62c-16.42,12.39-35.11,18.04-55.64,17.86
		c-3.68-0.03-7.39-0.03-11.05,0.34C144.78,226.55,142.04,229.75,138.98,233.63z M155.89,42.63c-0.8,0-1.6-0.04-2.39,0.01
		c-1.83,0.11-3.81,0.14-3.79,2.73c0.03,2.86,2.28,1.96,3.76,1.97c29.03,0.17,52.26,12.93,72.05,33.11
		c7.09,7.23,12.31,15.83,17.34,24.53c0.48,0.83,1.17,1.62,1.95,2.18c0.46,0.34,1.45,0.49,1.88,0.21c0.42-0.27,0.69-1.25,0.55-1.8
		c-0.33-1.34-0.82-2.67-1.46-3.89c-9.38-17.68-22.19-32.16-39.21-42.97C191.04,48.84,174.07,43.94,155.89,42.63z M247.42,116.45
		c0.54,1.92,1.05,3.51,1.43,5.12c3,12.54,3.11,25.27,2.39,38.05c-0.1,1.79-0.32,3.61-0.11,5.37c0.11,0.92,1.01,1.76,1.56,2.63
		c0.8-0.62,1.87-1.09,2.33-1.91c0.56-1,0.84-2.28,0.86-3.44c0.15-9.36,0.56-18.74,0.16-28.08c-0.2-4.69-1.76-9.35-2.99-13.95
		C252.42,117.87,251,115.9,247.42,116.45z M71.56,212.97c0.52-1.75,1.65-3.46,1.19-4.38c-1.97-3.98-4.33-7.78-6.73-11.53
		c-0.48-0.75-1.76-0.99-2.68-1.46c0.01,0.97-0.32,2.13,0.08,2.89C65.89,203.09,68.52,207.6,71.56,212.97z"/>
	<path class="st0" d="M138.98,233.63c3.06-3.88,5.8-7.08,10.33-7.54c3.66-0.37,7.37-0.37,11.05-0.34
		c20.53,0.18,39.22-5.47,55.64-17.86c13.56-10.24,21.15-24.37,25.1-40.62c0.82-3.38-2.27-2.92-4.11-3.8
		c-2.16,4.57-4.03,9.08-6.34,13.35c-12.37,22.85-31.65,36.36-56.88,41.73c-10.77,2.29-21.6,2.76-32.35,0.2
		c-18.15-4.32-32.23-14.63-42.9-29.82c-8.01-11.39-14.12-23.76-16.59-37.42c-1.44-7.95-1.42-16.29-1.03-24.41
		c0.95-20.01,9.4-36.9,23.29-51.04c17.03-17.33,37.6-24.57,61.79-20.55c26.69,4.44,47.25,18.59,62.38,40.56
		c11.83,17.18,14.83,36.73,12.85,57.13c-0.35,3.64-1.39,6.55,3.35,7.89c1.9,0.54,2.13,2.65,1.66,4.6
		c-2.26,9.46-5.74,18.39-10.89,26.69c-11.21,18.06-27.87,28.26-47.9,33.8c-11,3.04-22.19,3.63-33.51,3.01
		c-1.96-0.11-3.94,0.09-5.9,0.78c9.19,2.92,18.54,2.91,27.84,1.54c9.28-1.37,18.46-3.4,27.95-5.18c-0.39,3.23-2.93,4.41-5.44,5.05
		c-6.36,1.62-12.76,3.26-19.24,4.23c-11.63,1.73-23.29,0.85-34.9-0.68C142.71,234.71,141.21,234.19,138.98,233.63z M149.67,216
		c0.07,0.18,0.14,0.35,0.21,0.53c1.94,0,3.92,0.25,5.82-0.04c12.72-1.98,23.22-8.02,31.86-17.5c3.46-3.79,5.31-7.99,5.19-13.22
		c-0.21-8.97-0.09-17.95-0.12-26.93c-0.01-4.31-0.03-4.33,4.43-4.33c11.38-0.01,22.75-0.02,34.13,0.02
		c1.75,0.01,2.91-0.11,3.23-2.37c1.78-12.6,0.87-25-3.96-36.75c-10.17-24.78-27.94-41.85-53.44-50.44
		c-14.53-4.89-29.3-5.68-44.11-0.91c-0.94,0.3-1.82,0.76-3.22,1.35c4.52,0.68,8.39,0.91,12.06,1.89c9.18,2.44,14.36,8.43,14.37,16.4
		c0.06,33.72,0.13,67.43-0.08,101.15c-0.02,3.49-1.42,7.22-3.02,10.41c-2.95,5.87-8.09,9.75-13.68,13.03
		c-0.94,0.55-1.67,1.45-2.5,2.18c0.21,0.35,0.43,0.69,0.64,1.04c1.56-0.45,3.22-0.69,4.67-1.38c6.33-2.99,11.38-7.59,16.08-12.7
		c3.23-3.5,4.74-7.35,4.7-12.15c-0.14-16.16-0.04-32.32-0.03-48.48c0.01-19.35,0.04-38.7,0-58.05c0-1.87,0.24-3.02,2.53-3
		c5.69,0.03,11.37-0.09,17.06-0.23c1.68-0.04,2.34,0.56,2.31,2.23c-0.08,3.89-0.02,7.78-0.16,11.67c-0.03,0.76-0.58,2.06-1.04,2.14
		c-1.95,0.31-4.01,0.55-5.91,0.17c-0.68-0.14-0.98-2.1-1.48-3.22c-0.19-0.43-0.49-0.81-0.73-1.22c-0.32-0.03-0.64-0.06-0.95-0.09
		c-0.38,1.9-1.07,3.79-1.08,5.69c-0.08,10.87,0.04,21.75,0.02,32.62c-0.02,20.25-0.1,40.5-0.1,60.75c0,3.79-0.7,7.28-2.98,10.42
		c-5.03,6.93-10.89,12.97-18.11,17.63C151.4,214.86,150.54,215.43,149.67,216z"/>
	<path class="st0" d="M155.89,42.63c18.18,1.31,35.14,6.21,50.68,16.09c17.02,10.81,29.83,25.29,39.21,42.97
		c0.65,1.22,1.13,2.55,1.46,3.89c0.14,0.55-0.13,1.53-0.55,1.8c-0.42,0.27-1.41,0.13-1.88-0.21c-0.77-0.57-1.47-1.35-1.95-2.18
		c-5.04-8.71-10.25-17.3-17.34-24.53c-19.79-20.19-43.03-32.94-72.05-33.11c-1.48-0.01-3.74,0.89-3.76-1.97
		c-0.02-2.59,1.96-2.62,3.79-2.73C154.3,42.59,155.1,42.63,155.89,42.63z"/>
	<path class="st0" d="M247.42,116.45c3.58-0.55,5,1.42,5.63,3.79c1.23,4.6,2.79,9.26,2.99,13.95c0.4,9.34-0.01,18.72-0.16,28.08
		c-0.02,1.16-0.29,2.44-0.86,3.44c-0.46,0.81-1.53,1.28-2.33,1.91c-0.54-0.87-1.45-1.7-1.56-2.63c-0.2-1.76,0.01-3.58,0.11-5.37
		c0.72-12.78,0.62-25.51-2.39-38.05C248.47,119.96,247.96,118.37,247.42,116.45z"/>
	<path class="st0" d="M71.56,212.97c-3.04-5.36-5.67-9.88-8.13-14.48c-0.41-0.76-0.07-1.92-0.08-2.89c0.91,0.47,2.2,0.71,2.68,1.46
		c2.4,3.75,4.76,7.55,6.73,11.53C73.21,209.51,72.08,211.21,71.56,212.97z"/>
	<path d="M149.67,216c0.87-0.57,1.73-1.15,2.6-1.71c7.22-4.66,13.09-10.7,18.11-17.63c2.28-3.14,2.98-6.63,2.98-10.42
		c0-20.25,0.08-40.5,0.1-60.75c0.01-10.87-0.1-21.75-0.02-32.62c0.01-1.9,0.7-3.79,1.08-5.69c0.32,0.03,0.64,0.06,0.95,0.09
		c0.25,0.4,0.54,0.79,0.73,1.22c0.51,1.12,0.8,3.08,1.48,3.22c1.89,0.38,3.96,0.14,5.91-0.17c0.47-0.08,1.02-1.38,1.04-2.14
		c0.13-3.89,0.07-7.78,0.16-11.67c0.04-1.67-0.63-2.28-2.31-2.23c-5.68,0.15-11.37,0.26-17.06,0.23c-2.28-0.01-2.53,1.14-2.53,3
		c0.04,19.35,0.01,38.7,0,58.05c-0.01,16.16-0.1,32.32,0.03,48.48c0.04,4.79-1.47,8.64-4.7,12.15c-4.71,5.11-9.75,9.71-16.08,12.7
		c-1.45,0.68-3.11,0.93-4.67,1.38c-0.21-0.35-0.43-0.69-0.64-1.04c0.83-0.74,1.56-1.63,2.5-2.18c5.59-3.28,10.73-7.16,13.68-13.03
		c1.6-3.19,3-6.91,3.02-10.41c0.21-33.71,0.14-67.43,0.08-101.15c-0.01-7.97-5.19-13.96-14.37-16.4c-3.67-0.98-7.54-1.21-12.06-1.89
		c1.4-0.59,2.28-1.05,3.22-1.35c14.8-4.77,29.57-3.98,44.11,0.91c25.5,8.59,43.27,25.66,53.44,50.44
		c4.82,11.75,5.74,24.14,3.96,36.75c-0.32,2.26-1.48,2.37-3.23,2.37c-11.38-0.04-22.75-0.03-34.13-0.02c-4.46,0-4.45,0.01-4.43,4.33
		c0.03,8.98-0.09,17.96,0.12,26.93c0.12,5.23-1.73,9.43-5.19,13.22c-8.64,9.48-19.14,15.52-31.86,17.5
		c-1.9,0.29-3.88,0.04-5.82,0.04C149.81,216.36,149.74,216.18,149.67,216z"/>
</g>
</svg>
