<svg id="图层_1" data-name="图层 1" xmlns="http://www.w3.org/2000/svg" viewBox="0 0 714.9 769.26"><defs><style>.cls-1{fill:#fff;}</style></defs><path d="M1301.27,1111c-85.47,33.08-170.77,36.5-257.13-.89,33.52-14,51.65-14.29,70.08-1.61-1.67,3.13-3.36,6.36-5.56,10.5,2.91.2,4.9,1,6.09.29,4.85-2.76,9.45-6,14.18-9-3.81-3.39-7-8.11-11.5-9.93-12.6-5.14-25.59-9.36-38.61-13.28-3.15-1-7.37-.06-10.61,1.25-10.43,4.19-20.5,9.21-31,13.37-2.68,1.07-6.75,1.19-9.19-.12-15.87-8.44-31.47-17.41-49.66-27.61,14.57-4.9,26.45-8.74,38.19-13,7.67-2.73,8.62-7,2.59-12-1.52-1.25-4.88-1.34-6.93-.66-12.6,4.28-25,9.28-37.68,13.29-3.24,1-8.26.56-10.88-1.37-8.71-6.45-16.7-13.88-26.24-22,8.62-4.22,15.69-7.64,22.74-11.14a32,32,0,0,0,6.09-3.63c2.41-2,6.71-5.38,6.24-6.57a17.11,17.11,0,0,0-7.4-8c-1.72-.92-6.69.41-7.43,2-5.62,12-18.28,12.09-28,17-1.13.56-4.3-1.43-5.67-3-27.82-31.62-49.45-67.2-66.78-105.48-2.62-5.79-1.22-9.65,4.9-11.73,6.45-2.17,13.26-3.72,19.14-7,3.18-1.75,4.73-6.42,7-9.78-3.15-.56-6.51-2.14-9.37-1.48a166.82,166.82,0,0,0-22.82,6.89c-6.75,2.59-11.23,3.75-13.46-5.67-2.68-11.18-7.07-21.94-10.91-32.81-2.14-6-.56-9.07,5.86-11,21.16-6.27,22.17-8.2,18.54-30.31-1.1-6.72-1.93-13.52-3.86-20-.63-2.08-4.37-3.24-6.69-4.82-1.19,2.59-3.8,5.53-3.27,7.67,1.58,6.24,4.37,12.21,6.81,18.22,2.82,6.92.32,11.41-6.24,14.11-.84.33-1.67.6-2.53.87C823,838.1,822,838.16,818.69,821c-3.77-19.71-5.73-39.77-8.64-59.68-.89-6.12,2.14-8.59,7.46-9.81,8.94-2.05,17.83-4.34,26.77-6.42,5.8-1.36,9-4.3,7.11-10.72-2.06-7-6.75-3.69-10.82-2.74l-31,7.34c.74-9.6.51-17.29,2-24.6,6.45-30.11,13.58-60,20.09-90.14,1.55-7.07,5.26-10.17,12.22-10.11,4.75,0,9.48-.2,14.23-.2,7.28,0,9.81,3.77,7.28,10.34-3.39,8.82-7.4,17.41-11,26.15-2.29,5.47-4.76,10.91-6.39,16.55-.78,2.74.18,6,.35,9,2.74-1.72,6.22-2.88,8-5.29a43.76,43.76,0,0,0,5.73-11.92c1.94-5.59,2.89-11.5,4.94-17,7.31-19.58,14.92-39,22.35-58.57.62-1.67,1.63-3.51,1.39-5.08-.35-2.26-1.69-4.34-2.61-6.51-1.85,1.07-4.55,1.72-5.35,3.33a80,80,0,0,0-5.29,14c-1.64,5.74-5.29,8-11,8.29-9.06.45-18.13,1.34-28.14,2.11,4.31-19.82,12.42-37,23-52.54,10.08-14.89,22.35-28.29,33.64-42.32,8.32-10.31,19.8-9.86,34.18-10.07-11.8,14.86-22.05,27.75-32.28,40.62,6.81,6.07,10.94,4.34,14.15-.65,3.86-6,7.58-12,10.94-18.28,10.46-19.61,28.76-31.92,43.62-47.46,2.08-2.17,2.92-5.53,4.31-8.35-3.5.83-8.91.51-10.22,2.67-7.64,12.61-20.09,15.87-32.9,19.8-28.35,8.65-53.11,24.46-77.48,40.8-3.12,2.08-6.24,4.19-10.28,6.93,59.89-98.64,193.08-178.58,345.63-160.07-7,.89-13.88,2.29-20.86,2.59-52.63,2.31-98.94,22.37-142.18,50.82-3.47,2.28-8,9.83-7.54,10.28,5.46,5.32,8.7-1.25,12.45-3.6,23.18-14.53,46.45-29.6,74.06-33.22,45.32-6,90.88-9.75,136.44-1.16,11.5,2.17,23,4.46,36.31,7-3.27,5-5.26,8-7.81,12,7.9,2.4,15.51,4.37,22.85,7,94.65,34.24,160.78,99.32,202.41,189.73,32,69.54,41.1,143.33,27.64,218.07-21.13,117.27-87,202.24-195.37,253.15-46.3,21.75-95,30.9-146.16,25.64-2.05-.21-4.3-.5-6.15.15a5.37,5.37,0,0,0-3,3.75c-.09,1.15,1.49,3.18,2.77,3.62a24.59,24.59,0,0,0,8.67,1.64c29.31-1,58.61-1.88,87.85-3.3C1278.5,1114,1289.89,1112.2,1301.27,1111Zm-182.3-78.6c6.63,1.63,11.09,3.2,15.66,3.8,34.51,4.55,69.16,7.16,103.72,2,19.26-2.85,38.28-7.76,57.18-12.57,7.46-1.9,15-5.38,16.17-15-28.2,5.32-55.49,11.32-83.07,15.4s-55.42,4.13-82.73-4.58a45.17,45.17,0,0,1,17.53-2.32c33.64,1.84,66.9.09,99.59-8.94,59.53-16.47,109.07-46.78,142.35-100.45,15.31-24.67,25.65-51.21,32.37-79.32,1.36-5.8.71-12.1-4.94-13.67-14.08-4-11-12.63-10-23.45,5.88-60.63-3-118.73-38.19-169.79-45-65.32-106.1-107.37-185.39-120.53-71.92-11.95-133,9.59-183.63,61.07-41.37,42.08-66.45,92.27-69.27,151.74-1.16,24.13-1.22,49,3.06,72.55,7.37,40.62,25.53,77.35,49.3,111.2,31.71,45.15,73.55,75.81,127.49,88.62,32,7.58,64.14,6.21,96.14-.59,75-16,132.28-56.14,169-124,6.87-12.69,12.43-26.09,18.85-39.67,5.46,2.64,14.65,1.25,12.21,11.29-11.74,48.29-34.29,90.29-74.59,120.72-48.8,36.82-104.35,53.61-165.36,53.08a302.27,302.27,0,0,0-32.84,1C1136.21,1011.3,1128.07,1020.81,1119,1032.35Zm50.26-567.63c-2.38,0-4.76-.12-7.11,0-5.43.32-11.32.41-11.26,8.11.09,8.5,6.78,5.83,11.18,5.86,86.27.5,155.31,38.42,214.12,98.39,21.07,21.49,36.58,47,51.53,72.9a21.18,21.18,0,0,0,5.8,6.48c1.36,1,4.31,1.46,5.58.63s2-3.72,1.64-5.35a51.45,51.45,0,0,0-4.34-11.56c-27.88-52.55-65.95-95.58-116.53-127.7C1273.69,483.17,1223.26,468.61,1169.23,464.72Zm272,219.38c1.61,5.71,3.12,10.43,4.25,15.22,8.92,37.26,9.24,75.1,7.11,113.08-.3,5.32-1,10.73-.33,16,.33,2.73,3,5.23,4.63,7.81,2.38-1.84,5.56-3.24,6.93-5.67a22.42,22.42,0,0,0,2.55-10.23c.45-27.81,1.67-55.69.48-83.45-.59-13.94-5.23-27.78-8.89-41.46C1456.1,688.32,1451.88,682.47,1441.24,684.1ZM918.61,971c1.54-5.2,4.9-10.29,3.54-13-5.86-11.83-12.87-23.12-20-34.27-1.42-2.23-5.23-2.94-8-4.34,0,2.89-.95,6.34.24,8.59C901.76,941.58,909.57,955,918.61,971Z" transform="translate(-809.57 -367.68)"/><path class="cls-1" d="M1150.74,980c.21.54.42,1,.63,1.58,5.76,0,11.65.74,17.29-.12,37.8-5.89,69-23.84,94.69-52,10.28-11.26,15.78-23.75,15.42-39.29-.62-26.66-.27-53.34-.36-80,0-12.81-.09-12.87,13.17-12.87q50.73,0,101.43.06c5.2,0,8.65-.33,9.6-7,5.29-37.45,2.58-74.3-11.77-109.22-30.22-73.64-83-124.37-158.82-149.9-43.18-14.53-87.07-16.88-131.09-2.71-2.79.9-5.41,2.26-9.57,4,13.44,2,24.94,2.7,35.84,5.61,27.29,7.26,42.68,25.06,42.71,48.74.18,100.21.39,200.4-.24,300.61-.06,10.37-4.22,21.45-9,30.93-8.77,17.45-24,29-40.66,38.73-2.79,1.63-5,4.31-7.43,6.48.63,1,1.28,2.05,1.9,3.09,4.64-1.34,9.57-2.05,13.88-4.1,18.82-8.89,33.82-22.56,47.79-37.75,9.6-10.4,14.09-21.84,14-36.1-.42-48-.12-96.06-.09-144.08q0-86.26,0-172.52c0-5.56.71-9,7.52-8.91,16.91.09,33.79-.27,50.7-.69,5-.12,7,1.67,6.86,6.63-.23,11.56-.06,23.12-.47,34.68-.09,2.26-1.73,6.12-3.09,6.36-5.8.92-11.92,1.64-17.57.51-2-.42-2.91-6.24-4.39-9.57a39.52,39.52,0,0,0-2.17-3.63l-2.83-.27c-1.13,5.65-3.18,11.27-3.21,16.91-.23,32.31.12,64.64.06,96.95-.06,60.18-.29,120.36-.29,180.54,0,11.26-2.08,21.63-8.86,31-15,20.6-32.36,38.55-53.82,52.4C1155.88,976.56,1153.33,978.26,1150.74,980Z" transform="translate(-809.57 -367.68)"/><path class="cls-1" d="M1169.23,464.72c54,3.89,104.43,18.45,150.61,47.82,50.58,32.12,88.65,75.15,116.53,127.7a50,50,0,0,1,4.34,11.56c.41,1.63-.39,4.54-1.64,5.35s-4.19.38-5.58-.63a21.93,21.93,0,0,1-5.8-6.48c-15-25.88-30.46-51.41-51.53-72.9-58.81-60-127.88-97.89-214.12-98.4-4.4,0-11.12,2.65-11.18-5.85-.06-7.7,5.83-7.79,11.26-8.11C1164.5,464.6,1166.88,464.72,1169.23,464.72Z" transform="translate(-809.57 -367.68)"/><path class="cls-1" d="M1441.24,684.1c10.64-1.63,14.86,4.22,16.73,11.26,3.66,13.68,8.3,27.52,8.89,41.46,1.19,27.76,0,55.64-.48,83.45a22.05,22.05,0,0,1-2.55,10.23c-1.37,2.4-4.55,3.8-6.93,5.67-1.6-2.58-4.3-5-4.63-7.81-.6-5.23,0-10.64.33-16,2.13-38,1.84-75.82-7.11-113.08C1444.36,694.53,1442.85,689.81,1441.24,684.1Z" transform="translate(-809.57 -367.68)"/><path class="cls-1" d="M918.61,971c-9-15.93-16.85-29.37-24.16-43-1.22-2.25-.21-5.7-.24-8.59,2.7,1.4,6.54,2.12,8,4.34,7.14,11.15,14.15,22.44,20,34.27C923.51,960.66,920.15,965.72,918.61,971Z" transform="translate(-809.57 -367.68)"/><path d="M1150.74,980c2.59-1.69,5.14-3.42,7.73-5.08,21.46-13.85,38.9-31.8,53.82-52.39,6.78-9.34,8.86-19.71,8.86-31,0-60.18.23-120.36.29-180.54,0-32.31-.29-64.64-.06-97,0-5.64,2.08-11.26,3.21-16.91l2.83.27a31.07,31.07,0,0,1,2.17,3.63c1.51,3.33,2.37,9.15,4.39,9.57,5.62,1.13,11.77.41,17.57-.51,1.39-.24,3-4.1,3.09-6.36.39-11.56.21-23.12.47-34.68.12-5-1.87-6.78-6.86-6.63-16.88.45-33.79.78-50.7.69-6.78,0-7.52,3.38-7.52,8.91q.18,86.26,0,172.52c0,48-.3,96.05.09,144.08.12,14.23-4.37,25.67-14,36.1-14,15.19-29,28.86-47.79,37.75-4.31,2-9.24,2.76-13.87,4.1-.63-1-1.28-2-1.91-3.09,2.47-2.2,4.64-4.85,7.43-6.48,16.62-9.75,31.89-21.28,40.66-38.72,4.75-9.49,8.91-20.54,9-30.94.63-100.18.42-200.4.24-300.61,0-23.68-15.42-41.48-42.7-48.74-10.91-2.91-22.41-3.59-35.85-5.61,4.17-1.76,6.78-3.12,9.57-4,44-14.18,87.88-11.83,131.09,2.7,75.79,25.53,128.6,76.26,158.82,149.9,14.32,34.92,17.06,71.74,11.77,109.22-.95,6.71-4.4,7-9.6,7q-50.73-.18-101.43-.06c-13.26,0-13.23,0-13.17,12.87.09,26.69-.26,53.37.36,80,.36,15.54-5.14,28-15.42,39.29-25.68,28.17-56.88,46.12-94.69,52-5.64.86-11.53.12-17.29.12Z" transform="translate(-809.57 -367.68)"/></svg>